<?xml version="1.0" encoding="UTF-8"?>
<svg xmlns="http://www.w3.org/2000/svg" xmlns:xlink="http://www.w3.org/1999/xlink" viewBox="0 0 653.53 302.77">
  <defs>
    <style>.cls-1{fill:none;}.cls-2{fill:#bd1839;}.cls-3{clip-path:url(#clip-path);}.cls-4{fill:#fff;}.cls-5{fill:#6e6d5e;}</style>
    <clipPath id="clip-path" transform="translate(-27.57 -24.86)">
      <rect class="cls-1" width="708.66" height="352.48"></rect>
    </clipPath>
  </defs>
  <title>Recurso 1</title>
  <g id="Capa_2" data-name="Capa 2">
    <g id="Capa_1-2" data-name="Capa 1">
      <rect class="cls-2" y="39.48" width="653.53" height="223.81"></rect>
      <g class="cls-3">
        <path class="cls-4" d="M52.87,208.37V179.73H63.5c4.56,0,8.33,1.31,8.33,7.42,0,3.29-1.62,5.67-4.88,6.3v.08c4.25.6,5.36,3.33,5.36,7.26,0,7.26-6.31,7.58-8.85,7.58Zm6-16.94h4c1.31,0,3.13-.87,3.13-3.65a3.43,3.43,0,0,0-3.45-3.65H58.86Zm0,12.53h3.33c1.27,0,4.13,0,4.13-4,0-2.54-.95-4.09-4-4.09H58.86Z" transform="translate(-27.57 -24.86)"></path>
        <path class="cls-4" d="M96.38,179.73V200c0,4.28-2.42,8.8-9.71,8.8-6.59,0-9.76-3.41-9.76-8.8V179.73h6v19.91c0,3.53,1.5,4.92,3.69,4.92,2.61,0,3.8-1.75,3.8-4.92V179.73Z" transform="translate(-27.57 -24.86)"></path>
        <path class="cls-4" d="M107.13,208.37h-6V179.73h11.07c4.08,0,6.7,2.62,6.7,7.5,0,3.65-1.43,6.38-5.31,7v.08c1.31.15,5.19.47,5.19,5.63,0,1.82.12,7.22.68,8.41H113.6c-.8-1.75-.64-3.69-.64-5.56,0-3.41.32-6.3-4.28-6.3h-1.55Zm0-16.27h2.66c2.38,0,3-2.38,3-4.2,0-2.74-1.15-3.77-3-3.77h-2.66Z" transform="translate(-27.57 -24.86)"></path>
        <polygon class="cls-4" points="95.75 183.51 95.75 154.87 111.37 154.87 111.37 159.27 101.74 159.27 101.74 166.33 110.62 166.33 110.62 170.74 101.74 170.74 101.74 179.1 111.69 179.1 111.69 183.51 95.75 183.51"></polygon>
        <path class="cls-4" d="M141,208.37l7.94-28.64h7.89l7.77,28.64h-6.3L156.67,202H148.5l-1.63,6.35Zm11.55-23.13h-.08l-2.74,12.38h5.71Z" transform="translate(-27.57 -24.86)"></path>
        <path class="cls-4" d="M186.74,179.73V200c0,4.28-2.42,8.8-9.72,8.8-6.59,0-9.76-3.41-9.76-8.8V179.73h6v19.91c0,3.53,1.51,4.92,3.69,4.92,2.62,0,3.81-1.75,3.81-4.92V179.73Z" transform="translate(-27.57 -24.86)"></path>
        <polygon class="cls-4" points="170.55 154.87 176.78 154.87 181.22 175.69 181.3 175.69 186.3 154.87 192.21 154.87 184.63 183.51 177.61 183.51 170.55 154.87"></polygon>
        <polygon class="cls-4" points="194.9 183.51 194.9 154.87 210.53 154.87 210.53 159.27 200.89 159.27 200.89 166.33 209.78 166.33 209.78 170.74 200.89 170.74 200.89 179.1 210.85 179.1 210.85 183.51 194.9 183.51"></polygon>
        <path class="cls-4" d="M248.17,208.37h-6V179.73h11.07c4.09,0,6.7,2.62,6.7,7.5,0,3.65-1.43,6.38-5.31,7v.08c1.31.15,5.19.47,5.19,5.63,0,1.82.12,7.22.68,8.41h-5.87c-.8-1.75-.64-3.69-.64-5.56,0-3.41.32-6.3-4.28-6.3h-1.55Zm0-16.27h2.66c2.38,0,3-2.38,3-4.2,0-2.74-1.15-3.77-3-3.77h-2.66Z" transform="translate(-27.57 -24.86)"></path>
        <rect class="cls-4" x="236.79" y="154.87" width="5.99" height="28.64"></rect>
        <polygon class="cls-4" points="264.87 154.87 264.87 159.63 258.2 159.63 258.2 183.51 252.22 183.51 252.22 159.63 245.55 159.63 245.55 154.87 264.87 154.87"></polygon>
        <path class="cls-4" d="M290.66,208.37l7.93-28.64h7.9l7.77,28.64H308L306.37,202H298.2l-1.63,6.35Zm11.54-23.13h-.08l-2.74,12.38h5.72Z" transform="translate(-27.57 -24.86)"></path>
        <path class="cls-4" d="M324.85,208.84c-7.42,0-8.81-4.36-8.49-9.32h6c0,2.74.12,5,3.41,5,2,0,3-1.31,3-3.25,0-5.16-12.06-5.48-12.06-14,0-4.48,2.14-8.05,9.44-8.05,5.83,0,8.72,2.62,8.33,8.61h-5.83c0-2.14-.36-4.32-2.78-4.32a2.79,2.79,0,0,0-3.09,3.05c0,5.43,12,5,12,14,0,7.42-5.43,8.29-10,8.29" transform="translate(-27.57 -24.86)"></path>
        <path class="cls-4" d="M52.27,235.3c0-6.73,0-13.15,8.78-13.15,5.43,0,7.61,3,7.4,8.46H63.23c0-3.38-.6-4.65-2.18-4.65-3,0-3.39,2.82-3.39,9.34s.39,9.35,3.39,9.35c2.47,0,2.36-3.18,2.43-5.19h5.25c0,6.81-2.71,9-7.68,9-8.78,0-8.78-6.48-8.78-13.15" transform="translate(-27.57 -24.86)"></path>
        <path class="cls-4" d="M76.46,239.92c0,2.12.07,5.29,2.25,5.29,1.76,0,2.12-1.69,2.12-3.17h5A6.32,6.32,0,0,1,84,246.65a7.41,7.41,0,0,1-5.25,1.73c-6.42,0-7.26-3.91-7.26-9.48,0-4.87.7-9,7.26-9s7.44,4.34,7.26,10ZM81,237.13c0-1.72.07-4.19-2.29-4.19s-2.25,2.68-2.25,4.19Z" transform="translate(-27.57 -24.86)"></path>
        <path class="cls-4" d="M94.22,230.23v2.29h.07c.92-2.05,2.61-2.65,4.62-2.65v4.44c-4.37-.28-4.44,2.26-4.44,4V248h-5v-17.8Z" transform="translate(-27.57 -24.86)"></path>
        <path class="cls-4" d="M99.23,230.23h2V227.4l5-2.22v5h2.57v3.06h-2.57v9.52c0,1.34,0,2.22,1.59,2.22a3.49,3.49,0,0,0,.88-.07V248a20.43,20.43,0,0,1-2.58.18c-4.3,0-4.86-2.86-4.86-4v-11h-2Z" transform="translate(-27.57 -24.86)"></path>
        <path class="cls-4" d="M116.43,226.49h-5v-3.92h5Zm0,21.54h-5V230.22h5Z" transform="translate(-27.57 -24.86)"></path>
        <path class="cls-4" d="M128.49,225.64c-2-.14-2.43.64-2.43,2.43v2.16h2.33v3.06h-2.33V248h-5V233.29h-2.22v-3.06h2.25c0-5.12-.45-7.83,5.61-7.83.6,0,1.16,0,1.76.07Z" transform="translate(-27.57 -24.86)"></path>
        <path class="cls-4" d="M136,226.49h-5v-3.92h5ZM136,248h-5V230.22h5Z" transform="translate(-27.57 -24.86)"></path>
        <path class="cls-4" d="M149.5,236.57c0-2.64-.67-3.52-2.22-3.52-2.11,0-2.29,1.86-2.29,5.57,0,5.42.46,6.59,2.29,6.59,1.55,0,2.3-1.41,2.3-3.74h5c0,4.83-2.61,6.91-7.27,6.91-6.41,0-7.26-3.91-7.26-9.48,0-4.87.71-9,7.26-9,4.59,0,7.2,2,7.2,6.7Z" transform="translate(-27.57 -24.86)"></path>
        <path class="cls-4" d="M171.58,244.72c0,1.09.14,2.22.24,3.31H167.2l-.21-2.36h-.07a4.93,4.93,0,0,1-4.65,2.71c-3.46,0-4.73-2.57-4.73-5.67,0-5.89,4.55-6.14,9.17-6.07v-1.37c0-1.52-.21-2.61-2-2.61s-1.87,1.3-1.87,2.71H158c0-2.15.67-3.52,1.83-4.33a7.71,7.71,0,0,1,4.65-1.17c6.31,0,7.13,2.72,7.13,6Zm-9.17-2.23c0,1.27.21,2.82,1.83,2.82,2.93,0,2.47-3.94,2.47-5.88-2.47.1-4.3-.11-4.3,3.06" transform="translate(-27.57 -24.86)"></path>
        <path class="cls-4" d="M173.69,230.23h2V227.4l5-2.22v5h2.58v3.06h-2.58v9.52c0,1.34,0,2.22,1.59,2.22a3.45,3.45,0,0,0,.88-.07V248a20.4,20.4,0,0,1-2.57.18c-4.31,0-4.87-2.86-4.87-4v-11h-2Z" transform="translate(-27.57 -24.86)"></path>
        <path class="cls-4" d="M190.9,226.49h-5v-3.92h5Zm0,21.54h-5V230.22h5Z" transform="translate(-27.57 -24.86)"></path>
        <path class="cls-4" d="M194.88,238.9c0-4.87.7-9,7.26-9s7.27,4.16,7.27,9c0,5.57-.85,9.48-7.27,9.48s-7.26-3.91-7.26-9.48m9.55-.28c0-3.71-.17-5.57-2.29-5.57s-2.29,1.86-2.29,5.57c0,5.43.46,6.59,2.29,6.59s2.29-1.16,2.29-6.59" transform="translate(-27.57 -24.86)"></path>
        <path class="cls-4" d="M217.9,232H218a4.11,4.11,0,0,1,1.76-1.65,5.3,5.3,0,0,1,2.44-.5c2.36,0,4.44,1.41,4.44,3.88V248h-5V235.76c0-1.59-.28-2.82-1.87-2.82s-1.87,1.23-1.87,2.82V248h-5v-17.8h5Z" transform="translate(-27.57 -24.86)"></path>
        <path class="cls-5" d="M504.34,327.62h.37a166.43,166.43,0,0,0,48.61-7.18c16.69-5.81,32.52-17.45,42.09-31.95,15.78-23.09,30.11-67.73,30.74-112.19v-.12c-.63-44.46-15-89.1-30.74-112.2-9.57-14.49-25-26.14-41.73-31.95A173.32,173.32,0,0,0,455,32C438.32,37.84,422.85,49.49,413.28,64c-15.79,23.1-30.12,67.74-30.74,112.2v.12c.62,44.46,14.95,89.1,30.74,112.19,9.57,14.5,25,26.09,41.73,31.9a168.84,168.84,0,0,0,49,7.23Z" transform="translate(-27.57 -24.86)"></path>
        <path class="cls-4" d="M616.74,176.24c.54,33.48-9.65,74.11-19.5,95.75-10.88,24.7-27.51,39.74-52,46.42a168.56,168.56,0,0,1-82.38,0c-24.43-6.68-41.06-21.72-52-46.42-9.84-21.64-20-62.27-19.49-95.75-.54-33.48,9.65-74.12,19.49-95.75,10.89-24.7,27.52-39.75,52-46.43a168.56,168.56,0,0,1,82.38,0c24.44,6.68,41.07,21.73,52,46.43,9.85,21.63,20,62.27,19.5,95.75" transform="translate(-27.57 -24.86)"></path>
        <path class="cls-5" d="M504.54,64.72a132.06,132.06,0,0,1,34.13,4.54,39.55,39.55,0,0,1,25.62,21.95c10.28,22.07,17.05,53.82,17.05,85s-6.77,63-17.05,85a39.55,39.55,0,0,1-25.62,21.95,132.06,132.06,0,0,1-34.13,4.54h-.39A132.08,132.08,0,0,1,470,283.21a39.58,39.58,0,0,1-25.62-21.95c-10.28-22.06-17-53.81-17-85s6.76-63,17-85A39.58,39.58,0,0,1,470,69.26a132.08,132.08,0,0,1,34.14-4.54Z" transform="translate(-27.57 -24.86)"></path>
        <path class="cls-4" d="M521.08,107.33a32.28,32.28,0,0,1-2-3.49" transform="translate(-27.57 -24.86)"></path>
        <rect class="cls-4" x="420.13" y="145.41" width="38.61" height="11.22"></rect>
        <path class="cls-4" d="M477.57,267.45a9.19,9.19,0,0,1-1.22-4.23h22.08a10.4,10.4,0,0,1-4.56,8.06,11.55,11.55,0,0,1-11.54.82,11.86,11.86,0,0,1-4.76-4.66" transform="translate(-27.57 -24.86)"></path>
        <path class="cls-4" d="M501.4,258.47l-11.84,0V253h11.88l3.74-4.41c1.83,2.12,1.95,2.27,3.84,4.41h11.87v5.5l-11.88,0v13.64H501.4Z" transform="translate(-27.57 -24.86)"></path>
        <path class="cls-4" d="M502.8,241.45c2.44-.81,5.86-2.2,6.55-4.56-.17-3.65,2.33-6.59,4.22-9.5a3.58,3.58,0,0,0,.78-3.4c3.79.14,7.62,3.3,9.07,6.84a11.68,11.68,0,0,1-13,15.86,12,12,0,0,1-7.57-5.24" transform="translate(-27.57 -24.86)"></path>
        <path class="cls-4" d="M474.32,192.21a8.7,8.7,0,0,0-7.32-.36,6.21,6.21,0,0,0-4.08,5c-.12,6.69.12,8.75,0,16.09-.12,1.15-.73,1.7-2.19,1.7-1.21-.07-2.12-.67-2.1-1.72V196.51a7.22,7.22,0,0,0-1.61-4.75l-8.49,2.76-.78.29c2.16,1.59,3.16,1.63,3.33,4.28v21l.13,1.11.3.73.24.67.31.55a8.61,8.61,0,0,0,5.42,3.56,11.66,11.66,0,0,0,2.74.33,10.16,10.16,0,0,0,6.53-1.71c3.49-2.73,2.73-7.52,2.82-14.49,0-1.95.15-3,1.36-4.17a4.62,4.62,0,0,1,3.74-.72,8,8,0,0,1,3.2,1.49c0-6,.22-13.4-3.54-15.21" transform="translate(-27.57 -24.86)"></path>
        <path class="cls-4" d="M553.09,218.54c-6.2-6.1-16.93-14.59-17.8-18.2-.93-2.42-.64-5.33-.69-8.14,1.79-1.41,3.28-2.64,5.44-4.32-.16,4.29-.76,8.66,1.31,11.2,5,5,9.66,9.61,14.22,14.08,1.69,1.84,3,4.46,1.93,6.89a21.26,21.26,0,0,1-2,3.54,6.54,6.54,0,0,0-2.38-5.05" transform="translate(-27.57 -24.86)"></path>
        <path class="cls-4" d="M518,187.61c4.72-.08,6.25,0,11.17,0v33.15H517.94Z" transform="translate(-27.57 -24.86)"></path>
        <path class="cls-4" d="M543.06,190.68c1.19-1.31,1.61-1.8,3-3.16l2.82,3.4v9.43c4-1.94,3-7.59,3-12.48,2.36,1.92,3.56,3,5.82,5.14,1.28,5.64-2.12,8.85-4.66,12.8l-10-9.55Z" transform="translate(-27.57 -24.86)"></path>
        <path class="cls-4" d="M552.17,165.33l1.5-6.31,4.91-.73,0-15.66c-1.89.28-2.67.48-4.21.66V131.4c-2.57.54-5.29,1.46-8,2.09v19.7c0,1-1.54,1.28-1.86,1.26h-.41c-1,0-2-.66-2-1.33v-19l-7.83,1v8c-2.77,5.63-6.84,10.72-10.83,15.87,4.23.28,4.54.28,8.74.67l2.59,5.64Z" transform="translate(-27.57 -24.86)"></path>
        <path class="cls-4" d="M463.09,161.42c-.12-5.18-.34-8.57-.45-13.68,1.59-.43,3.15.58,4.41,1.51-.21,6.51-.21,6.44-.34,13.26h-3.59Z" transform="translate(-27.57 -24.86)"></path>
        <path class="cls-4" d="M462.4,131.64c-.86-5.1-.93-5.48-1.41-9.21h-3.25v-3.59c5.62,0,8.73,0,14.35,0v3.58h-3.34l-1.47,12a13.51,13.51,0,0,0-4.89-2.81" transform="translate(-27.57 -24.86)"></path>
        <path class="cls-4" d="M461.81,116.27c-4.79-5.15-5.14-12.88-4.22-19.86l0,0a9.22,9.22,0,0,0,5.1,5.67c-.29-1.36-1.51-2.62-1.9-4.08-1.11-2.81-1-6.84.83-9.31,1.31-1.94,3.18-2.74,5.24-3.4a11.1,11.1,0,0,0-.06,7.5,24.38,24.38,0,0,0,2.46-2.11,6.08,6.08,0,0,1,.91-.76c1.91,4.07,4.08,9.71,2.82,14.46l-.79,2.07c-.3-3.37-.85-5-3.11-6.21-.28,2,1,3.36,1.26,5.92.91,4,.19,7.85-2.25,10.14Z" transform="translate(-27.57 -24.86)"></path>
        <path class="cls-4" d="M521.08,107.33l-5,5.43c-1.32-1.28-1.45-1.42-2.78-2.82,2.54-2.67,2.8-3,5.76-6.1" transform="translate(-27.57 -24.86)"></path>
        <path class="cls-4" d="M527.55,94.1c1-4.7,1.55-10.12,6.72-12.09a7.06,7.06,0,0,1,6.26,1.16A6.51,6.51,0,0,1,542.86,90c-1.54,5.46-7.63,6.49-12.58,7.8Z" transform="translate(-27.57 -24.86)"></path>
        <polygon class="cls-4" points="534.27 145.4 534.27 156.69 495.66 156.63 495.66 145.41 534.27 145.4"></polygon>
        <path class="cls-4" d="M468.6,245.67c-1.55-7.13,7-9.7,9.08-15.62,1.6-9.9,2.08-20.33,9-28,.68-14.56,5.39-27.42,15.72-38-.48-3.25-1.84-6.11-2.81-9.17a4.77,4.77,0,0,1-3.49-1.4,7.59,7.59,0,0,1-1.5-3.74c-3.6,4.46-8.06,9.46-13,12.47-.9.5-2.05-.56-3.68-2.09-6-4.75-7-15.53-16.21-15-4.17-1.41-4-6.31-4.65-10,1.55-1.11,4.05-1.06,5.92-.34,5.72,3.06,9.53,9.51,14.94,13.83,1.45,1.16,2.75,2.68,4.09,3.23,3.54-3,6.4-5.68,8.79-10.41a8.57,8.57,0,0,1,7.5-3.88l2.18-2.57-1.17-6.41a47.55,47.55,0,0,1-5.57-9.07c.78-3.69,1.26-8,5-10,2.42-1.51,4.42,1.94,6.4-.25a4.26,4.26,0,0,1,3.72.93c1.51,2.61,3.31,5.23,3.41,8.29a55.82,55.82,0,0,1-3.74,8.5c-.32.63-1.17.82-1.74,1.26a8.6,8.6,0,0,0,1.5,3.63,8.22,8.22,0,0,0,3.5.2c1.06-3.25,4.55-4.7,7.47-5.58l6.4-4.17c-1-4.86,2.09-9.13.34-14-3.64-1.69-4.69-5.84-5.48-9.07a15.54,15.54,0,0,1,3-5.87l.22.24c3.49,4.07,6.69,8.25,7.81,13.29a121.28,121.28,0,0,1,.82,19.8c-3.44,3.44-7.61,5.48-11.55,8l-2.9,5.58c-.34,5.78-2,11-2.92,16.55,2.48,6.75,5.43,15.73,3.26,22-1.65,3.73-5.17,5.76-7.78,7.81L504,191.86c6.57,7.26,5,15.48,5.27,26-.06,2.53,4.48,4.65,2.05,7.54-2,3.24-5.18,5.87-4.65,10.15-2,3.37-6.84,4.1-9.1,4.07a.82.82,0,0,1-.89-.83c.49-1.75,1.84-3.1,2.57-4.75,2.33-3.59,1.26-8.54,4.17-11.89-2.4-7.8-6-15-7-23.38l-.08-.51c-1.94,3.81-.88,7.57.15,10.59C490,217,483,224.81,483,235.54c-2.76,4.89-6.69,9.36-8.73,14.55-.7.86-2,.1-2.77-.34-1.85-1.22-2.27-2.41-2.91-4.08" transform="translate(-27.57 -24.86)"></path>
        <path class="cls-4" d="M539.48,210.51c6.2,6.1,16.93,14.6,17.81,18.2.92,2.42.63,5.33.68,8.15-1.8,1.41-3.28,2.63-5.44,4.32.16-4.3.77-8.66-1.31-11.21-5.06-5.05-9.65-9.61-14.22-14.07-1.69-1.84-3-4.47-1.93-6.89a21,21,0,0,1,2-3.55,6.54,6.54,0,0,0,2.38,5" transform="translate(-27.57 -24.86)"></path>
        <path class="cls-4" d="M549.51,238.38c-1.18,1.31-1.61,1.79-3,3.15l-2.81-3.4v-9.42c-4,1.94-3,7.58-3,12.48-2.36-1.93-3.56-3-5.82-5.15-1.27-5.63,2.12-8.85,4.66-12.8l10,9.55Z" transform="translate(-27.57 -24.86)"></path>
        <path class="cls-4" d="M532.81,267.45a9.06,9.06,0,0,0,1.21-4.23H511.94a10.44,10.44,0,0,0,4.57,8.06,11.56,11.56,0,0,0,11.55.82,12,12,0,0,0,4.75-4.66" transform="translate(-27.57 -24.86)"></path>
        <path class="cls-5" d="M508.24,315.62c-.11-6.12,5.88-9.22,9.65-13.29a4.13,4.13,0,0,0,.67-4.53,2.72,2.72,0,0,0-1.92-1.7,3.53,3.53,0,0,0-3.28.62,4.94,4.94,0,0,0-1.45,4l-4.17.25a7.94,7.94,0,0,1,1.61-6.33c2-2.09,4.9-2.68,7.76-2.49,2.29.37,4.95,1.76,5.9,4.16a7.64,7.64,0,0,1-1.12,8.09c-2.48,2.64-5.71,4.07-7.76,7.05l10.59-.62c.08,1.31.16,2.57.23,3.77Z" transform="translate(-27.57 -24.86)"></path>
        <path class="cls-5" d="M470.64,289.15l-.06.2-6.91,21.15-4.4-1.44L464,294.57l.07-.25c-1.75-.61-3.87-1.22-5.59-1.83l.91-2.73c2.23.58,4.52,1,6.46-.65a6.53,6.53,0,0,0,1.21-1.13Z" transform="translate(-27.57 -24.86)"></path>
        <path class="cls-5" d="M554.48,300.86a5.73,5.73,0,0,0-4-4.42l-1.34-.29c1.37-1,2.64-2.94,2.18-4.85a5.57,5.57,0,0,0-3.87-4.33,12.48,12.48,0,0,0-10.74,2.65,5.55,5.55,0,0,0-1.42,5.63c.48,1.91,2.52,3.05,4.19,3.28l-1.05.89a5.67,5.67,0,0,0-1.52,5.79,6.74,6.74,0,0,0,4.69,4.85,12.39,12.39,0,0,0,5.83-.07,12.24,12.24,0,0,0,5.19-2.65,6.73,6.73,0,0,0,1.9-6.48m-14.57-6a3,3,0,0,1,.41-3.39,5,5,0,0,1,4.7-1.16,2.94,2.94,0,0,1,1.93,2.81,2.7,2.7,0,0,1-.91,2,4.77,4.77,0,0,1-2.08,1,4.88,4.88,0,0,1-2.33.08,2.77,2.77,0,0,1-1.72-1.32M549.17,305a5.24,5.24,0,0,1-2.66,1.43,5.19,5.19,0,0,1-3,0,3.38,3.38,0,0,1-2.11-2.23,3.42,3.42,0,0,1,1.25-3.85,7,7,0,0,1,2.13-1,6.88,6.88,0,0,1,2.34-.14,3.5,3.5,0,0,1,2.06,5.78" transform="translate(-27.57 -24.86)"></path>
        <path class="cls-5" d="M497.29,308.82a5.72,5.72,0,0,0-2.54-5.43l-1.19-.68a5,5,0,0,0,3.53-4,5.6,5.6,0,0,0-2.41-5.29,12.5,12.5,0,0,0-11.05-.66,5.56,5.56,0,0,0-3,5c-.11,2,1.5,3.67,3,4.38l-1.27.53a5.69,5.69,0,0,0-3.17,5.08,6.68,6.68,0,0,0,3,6,12.81,12.81,0,0,0,11.34.69,6.76,6.76,0,0,0,3.73-5.61m-12.11-10.11a2.94,2.94,0,0,1,1.4-3.11,4.56,4.56,0,0,1,2.46-.48,4.49,4.49,0,0,1,2.37.78,2.92,2.92,0,0,1,1,3.25,2.75,2.75,0,0,1-1.45,1.62,5.73,5.73,0,0,1-4.54-.28,2.76,2.76,0,0,1-1.25-1.78M491,311.2a5.09,5.09,0,0,1-3,.57,5.18,5.18,0,0,1-2.87-.92,3.5,3.5,0,0,1,1-6.06,6.52,6.52,0,0,1,4.6.28,3.42,3.42,0,0,1,1.92,3.55A3.38,3.38,0,0,1,491,311.2" transform="translate(-27.57 -24.86)"></path>
        <rect class="cls-5" x="574.47" y="94.07" width="22.42" height="4.68" transform="translate(-17.86 214.99) rotate(-23.33)"></rect>
        <path class="cls-5" d="M519.32,58.5,514,35.43l4.88.49c1,5.71,2,12.2,3.14,17,2.09-4.47,4.38-10.62,6.49-16l4.81.49-9.76,21.55Z" transform="translate(-27.57 -24.86)"></path>
        <polygon class="cls-5" points="404.14 46.87 399.14 55.82 394.92 53.46 400.65 43.19 397.41 41.37 389.39 55.75 408.96 66.69 416.99 52.3 413.74 50.49 408 60.79 402.52 57.72 407.54 48.75 404.14 46.87"></polygon>
        <path class="cls-5" d="M419.83,167c-1.05-2.41-3.65-3.36-6.33-3.23a6.13,6.13,0,0,0-4.94,4.14,4.48,4.48,0,0,0-3.76-3.35c-2.25-.27-4.4.33-5.49,2.24-1.48,1.9-.84,10.24-1,15l22.27,0V180.2c-.12-8.86.39-9.91-.77-13.19m-12.64,10.16h-5.5c.16-5.15-.69-7.89,2.46-8.23,1.86-.14,2.38.28,2.8,1.4s.25,2.36.24,6.83m9.68,0-6.26,0h0c.11-5-.66-7.92,2.3-8.49a3.21,3.21,0,0,1,3.08.6c1.26,1.22.87,3.26.92,7.87" transform="translate(-27.57 -24.86)"></path>
        <polygon class="cls-5" points="569.53 81.72 573.09 80.81 577.6 98.34 574.04 99.26 572.37 92.77 554.36 97.41 553.2 92.88 571.2 88.24 569.53 81.72"></polygon>
        <path class="cls-5" d="M483.89,59.81a10.43,10.43,0,0,1-7.13-1.09,5.41,5.41,0,0,1-2.75-4l-2.57-16L476,38l2.59,16a3.19,3.19,0,0,0,2.63,2.37,5,5,0,0,0,2.15,0" transform="translate(-27.57 -24.86)"></path>
        <path class="cls-5" d="M483.94,59.79a10.33,10.33,0,0,0,6.43-3.26,5.42,5.42,0,0,0,1.35-4.67l-2.57-16-4.56.73,2.56,16a3.28,3.28,0,0,1-1.76,3.07,5,5,0,0,1-2,.69" transform="translate(-27.57 -24.86)"></path>
        <path class="cls-5" d="M607.45,138.35l-23.29-4.68.64,4.55,5.07.93,1.12,8-4.62,2.28L587,154l21.12-10.88Zm-13,7.07-.78-5.54,9.67,1.46h0Z" transform="translate(-27.57 -24.86)"></path>
        <path class="cls-5" d="M604.08,176.87l.41-.07.52-.13.37-.13c1.47-.8,1.82-2.77,1.74-4.38s-.55-3.27-2.08-3.85a2,2,0,0,0-2.31.53c-2.52,3.74-.77,11.68-7.29,13.08a6.62,6.62,0,0,1-6.81-3c-2-3.62-2.19-9.27.12-12.76a7,7,0,0,1,5.57-3l.27,4.29a4.24,4.24,0,0,0-3.42,2.27c-.95,2.25-.72,5.82.93,7.15a2.55,2.55,0,0,0,2.76.18c2.59-1.86,2.07-6.49,3.36-9.6a6.44,6.44,0,0,1,2.89-3.33,6.59,6.59,0,0,1,7.09,1.2c3,2.81,3.12,8.33,1.73,11.68a6.69,6.69,0,0,1-5.91,4.19l-.27-4.31Z" transform="translate(-27.57 -24.86)"></path>
        <path class="cls-5" d="M423.62,143.06a10.3,10.3,0,0,1-3.24,6.44,5.41,5.41,0,0,1-4.66,1.37l-16-2.52.72-4.56,16,2.5a3.17,3.17,0,0,0,3.06-1.77,4.85,4.85,0,0,0,.69-2" transform="translate(-27.57 -24.86)"></path>
        <path class="cls-5" d="M423.63,143a10.32,10.32,0,0,0-1.11-7.13,5.4,5.4,0,0,0-4-2.73l-16-2.52-.72,4.57,16,2.53a3.27,3.27,0,0,1,2.37,2.62,5.13,5.13,0,0,1,0,2.14" transform="translate(-27.57 -24.86)"></path>
        <path class="cls-5" d="M448.5,47.19l-4.12,2.5,4.93,23.23,3.93-2.38-1.15-5L459,61.31l3.93,3.34,3.91-2.38Zm2.73,14.5-2.49-9.46,0,0,0,0v0l0,0L456,58.79Z" transform="translate(-27.57 -24.86)"></path>
        <polygon class="cls-5" points="529.75 29.62 520.29 25.66 522.16 21.21 533.01 25.74 534.45 22.31 519.25 15.96 510.6 36.65 525.8 43 527.23 39.57 516.35 35.02 518.78 29.24 528.26 33.21 529.75 29.62"></polygon>
        <path class="cls-5" d="M420.82,104.17c0-1.54-.1-2.83-1.37-4a6.49,6.49,0,0,0-5.12-1.73c-5,.78-5.65,6.51-8.41,15.57l21.47,6.4,1.34-4.47-8.48-2.53-.36-.11a29.59,29.59,0,0,1,1.83-5.24c1.54-3.56,7.23-.07,9.48-.41l1.32-4.44c-3.84.21-9-3.22-11.7,1m-4.47,8-5.61-1.67c1.22-3.83,1.76-7.69,4.47-7.45a3.56,3.56,0,0,1,2.46,1.24c1.05,1.31-.3,4.18-1.32,7.88" transform="translate(-27.57 -24.86)"></path>
        <path class="cls-5" d="M577.5,59.54,559.7,73.13l2.83,3.71,7-5.37.3-.21A29.85,29.85,0,0,1,573,75.81c2,3.34-4.2,5.89-5.24,7.91l2.81,3.68c2.08-3.23,7.88-5.37,6.07-10.05,1.25.89,2.35,1.58,4.08,1.27a6.46,6.46,0,0,0,4.4-3.13c2.31-4.48-1.93-8.39-7.64-15.95m3.35,13.91a3.57,3.57,0,0,1-2.46,1.26c-1.68.08-3.19-2.7-5.6-5.7l4.67-3.56c2.37,3.24,5.17,6,3.39,8" transform="translate(-27.57 -24.86)"></path>
      </g>
      <polygon class="cls-4" points="25.59 78.12 29.11 78.12 32.65 78.12 32.65 112.57 29.13 112.57 25.59 112.57 25.59 78.12"></polygon>
      <g class="cls-3">
        <path class="cls-4" d="M79.81,113.65v-1a7.09,7.09,0,0,0-.68-3.85,2.81,2.81,0,0,0-2.56-1.13,3.39,3.39,0,0,0-2.7,1,4.64,4.64,0,0,0-.9,3.11A3.9,3.9,0,0,0,74,114.55a12.06,12.06,0,0,0,3.71,2.4q5.25,2.49,7.34,4.85a8.45,8.45,0,0,1,2.1,5.81c0,3.46-.89,6-2.69,7.76s-4.5,2.57-8.11,2.57q-5.91,0-8.36-2.31c-1.64-1.53-2.45-4-2.45-7.53v-1.34h7v1a5.87,5.87,0,0,0,.92,3.73,3.47,3.47,0,0,0,2.93,1.25,3.54,3.54,0,0,0,2.87-1.13,5.12,5.12,0,0,0,1-3.39A4.07,4.07,0,0,0,79,125.34a13.76,13.76,0,0,0-4-2.58q-5-2.37-7-4.67a8.19,8.19,0,0,1-2-5.64q0-5,2.7-7.49c1.79-1.66,4.5-2.49,8.11-2.49s6.33.77,7.86,2.32,2.14,3.82,2.12,7.08v1.78Z" transform="translate(-27.57 -24.86)"></path>
        <path class="cls-4" d="M95.32,135.3q-2.41-2.62-2.41-9.05V112.06q0-4.8,2.67-7.2t8-2.39q5.37,0,8.05,2.39t2.69,7.2v14.19q0,6.42-2.42,9.05c-1.61,1.76-4.39,2.64-8.32,2.64s-6.69-.88-8.31-2.64m11.19-3.9a10.45,10.45,0,0,0,.8-4.86V112.36a5.6,5.6,0,0,0-.94-3.52,3.73,3.73,0,0,0-5.48,0,5.66,5.66,0,0,0-.93,3.52v14.18a10.3,10.3,0,0,0,.81,4.86,3.69,3.69,0,0,0,5.74,0" transform="translate(-27.57 -24.86)"></path>
        <path class="cls-4" d="M139.93,137.94q-4.94,0-6.75-1.91c-1.21-1.28-1.8-3.61-1.75-7v-.7h6.42v.7a6.68,6.68,0,0,0,.4,3.36,2.11,2.11,0,0,0,2,.89,2.65,2.65,0,0,0,2.35-.89,6.69,6.69,0,0,0,.61-3.43v-6.15a9.35,9.35,0,0,1-5.5,1.68c-2.28,0-3.92-.68-4.94-2s-1.53-3.57-1.53-6.63v-3.27c0-3.52.73-6,2.18-7.61s3.8-2.33,7.05-2.33,5.75.68,7.13,2,2.08,3.73,2.08,7.08V129c0,3.09-.79,5.35-2.35,6.78s-4,2.15-7.42,2.15m3.3-26.24a6.46,6.46,0,0,0-.65-3.31,2.57,2.57,0,0,0-4.1,0,6.59,6.59,0,0,0-.63,3.35v4.59a4.69,4.69,0,0,0,.63,2.78,2.41,2.41,0,0,0,2.06.83,2.37,2.37,0,0,0,2-.89,4.58,4.58,0,0,0,.66-2.72Z" transform="translate(-27.57 -24.86)"></path>
        <path class="cls-4" d="M157.26,135.66q-2.19-2.28-2.19-7.41V112.38c0-3.43.73-5.92,2.19-7.45s3.86-2.29,7.18-2.29,5.71.76,7.18,2.28,2.2,4,2.2,7.44v15.87c0,3.43-.74,5.91-2.2,7.43s-3.86,2.28-7.18,2.28-5.71-.76-7.18-2.28m9.65-3.6a19.79,19.79,0,0,0,.48-5.69V112.62a10,10,0,0,0-.59-4.23,2.39,2.39,0,0,0-2.31-1.09,2.35,2.35,0,0,0-2.27,1.13,9.69,9.69,0,0,0-.61,4.19v13.75a18.73,18.73,0,0,0,.51,5.63,2.27,2.27,0,0,0,2.37,1.23c1.29,0,2.09-.39,2.42-1.17" transform="translate(-27.57 -24.86)"></path>
        <path class="cls-4" d="M181.24,135.66q-2.2-2.28-2.2-7.41V112.38c0-3.43.73-5.92,2.2-7.45s3.86-2.29,7.18-2.29,5.71.76,7.17,2.28,2.2,4,2.2,7.44v15.87q0,5.15-2.2,7.43t-7.17,2.28c-3.32,0-5.72-.76-7.18-2.28m9.64-3.6q.5-1.17.49-5.69V112.62a9.92,9.92,0,0,0-.6-4.23,2.39,2.39,0,0,0-2.31-1.09,2.36,2.36,0,0,0-2.27,1.13,9.85,9.85,0,0,0-.61,4.19v13.75q0,4.4.52,5.63a2.26,2.26,0,0,0,2.36,1.23c1.29,0,2.1-.39,2.42-1.17" transform="translate(-27.57 -24.86)"></path>
        <path class="cls-4" d="M210.66,110.55l-.88,1a15,15,0,0,1-3.93,2.66v-5.51a13.34,13.34,0,0,0,5.47-5.5h5.83v34.28h-6.49Z" transform="translate(-27.57 -24.86)"></path>
      </g>
    </g>
  </g>
</svg>
