<?xml version="1.0" encoding="UTF-8"?>
<svg xmlns="http://www.w3.org/2000/svg" viewBox="0 0 651.19 289.54">
  <defs>
    <style>.cls-1{fill:#bd1839;}.cls-2{fill:#6e6d5e;}.cls-3{fill:#fff;}</style>
  </defs>
  <title>Recurso 1</title>
  <g id="Capa_2" data-name="Capa 2">
    <g id="Primer_plano" data-name="Primer plano">
      <rect class="cls-1" y="37.2" width="651.19" height="219.13"></rect>
      <path class="cls-2" d="M467.42,289.54h.36a160,160,0,0,0,46.49-6.85c16-5.58,31.1-16.72,40.25-30.58,15.1-22.07,28.81-64.75,29.39-107.29v-.11c-.58-42.51-14.29-85.2-29.39-107.3-9.15-13.87-23.94-25-39.9-30.56a165.94,165.94,0,0,0-94.37,0c-16,5.55-30.75,16.69-39.9,30.56-15.1,22.1-28.81,64.79-29.39,107.3v.11c.58,42.54,14.29,85.22,29.39,107.29,9.15,13.86,23.94,24.95,39.9,30.51a161.72,161.72,0,0,0,46.84,6.92Z"></path>
      <path class="cls-3" d="M574.93,144.76c.52,32-9.24,70.87-18.66,91.56-10.4,23.64-26.3,38-49.68,44.42a162,162,0,0,1-78.77,0c-23.38-6.39-39.27-20.78-49.68-44.42-9.42-20.69-19.18-59.53-18.64-91.56-.54-32,9.22-70.87,18.64-91.57,10.41-23.63,26.3-38,49.68-44.39a161.05,161.05,0,0,1,78.77,0c23.38,6.39,39.28,20.76,49.68,44.39C565.69,73.89,575.45,112.75,574.93,144.76Z"></path>
      <path class="cls-2" d="M467.63,38.11a125.87,125.87,0,0,1,32.63,4.36,37.77,37.77,0,0,1,24.51,21c9.83,21.11,16.29,51.46,16.29,81.31S534.6,205,524.77,226.07a37.85,37.85,0,0,1-24.51,21,126.29,126.29,0,0,1-32.63,4.33h-.39a126.29,126.29,0,0,1-32.63-4.33,37.83,37.83,0,0,1-24.51-21c-9.83-21.09-16.29-51.44-16.29-81.31s6.46-60.2,16.29-81.31a37.74,37.74,0,0,1,24.51-21,125.87,125.87,0,0,1,32.63-4.36Z"></path>
      <path class="cls-3" d="M483.43,78.86a33.05,33.05,0,0,1-1.9-3.34"></path>
      <polygon class="cls-3" points="450.19 139.05 450.19 149.78 413.26 149.8 413.26 139.05 450.19 139.05"></polygon>
      <path class="cls-3" d="M441.84,232a8.45,8.45,0,0,1-1.17-4.06h21.12a10,10,0,0,1-4.37,7.73,11,11,0,0,1-11,.79A11.29,11.29,0,0,1,441.84,232Z"></path>
      <path class="cls-3" d="M464.61,223.41l-11.32,0v-5.27h11.37l3.58-4.22c1.74,2,1.85,2.17,3.67,4.22h11.34v5.27l-11.36,0v13.05h-7.28Z"></path>
      <path class="cls-3" d="M466,207.15c2.32-.78,5.6-2.13,6.26-4.38-.15-3.5,2.24-6.3,4-9.08a3.45,3.45,0,0,0,.73-3.26c3.62.14,7.29,3.17,8.69,6.54a11.17,11.17,0,0,1-12.49,15.17A11.62,11.62,0,0,1,466,207.15Z"></path>
      <path class="cls-3" d="M438.72,160a8.36,8.36,0,0,0-7-.33,5.94,5.94,0,0,0-3.89,4.78c-.12,6.39.12,8.37,0,15.39-.12,1.1-.7,1.61-2.09,1.61-1.16,0-2-.62-2-1.63V164.17a6.86,6.86,0,0,0-1.56-4.55l-8.11,2.64-.72.26c2,1.52,3,1.58,3.16,4.1v20l.1,1.09.32.7.22.63.28.52a8.38,8.38,0,0,0,5.2,3.41,11.67,11.67,0,0,0,2.63.31,9.66,9.66,0,0,0,6.24-1.64c3.34-2.6,2.59-7.18,2.7-13.86,0-1.86.13-2.92,1.29-4a4.33,4.33,0,0,1,3.58-.69,7.68,7.68,0,0,1,3.06,1.42C442.14,168.84,442.3,161.77,438.72,160Z"></path>
      <path class="cls-3" d="M514,185.22c-5.92-5.84-16.19-14-17-17.4-.87-2.33-.59-5.11-.64-7.79,1.71-1.35,3.14-2.51,5.2-4.12-.15,4.1-.74,8.26,1.23,10.71,4.85,4.82,9.24,9.17,13.61,13.47,1.63,1.74,2.93,4.24,1.86,6.58a19.51,19.51,0,0,1-2,3.36A6.26,6.26,0,0,0,514,185.22Z"></path>
      <path class="cls-3" d="M480.49,155.63c4.51-.07,6,.07,10.68,0v31.7H480.45Z"></path>
      <path class="cls-3" d="M504.45,158.57c1.14-1.25,1.56-1.7,2.88-3L510,158.8v9c3.8-1.84,2.89-7.23,2.89-11.94,2.26,1.85,3.39,2.9,5.56,4.93,1.22,5.39-2,8.47-4.46,12.25l-9.56-9.16Z"></path>
      <path class="cls-3" d="M513.17,134.32l1.44-6,4.69-.69v-15c-1.82.25-2.56.45-4,.62V101.89c-2.46.51-5.06,1.4-7.66,2v18.86c0,.9-1.47,1.21-1.78,1.2h-.39c-.94,0-1.86-.64-1.86-1.28V104.51l-7.5.94v7.67c-2.64,5.37-6.53,10.26-10.34,15.17,4,.29,4.34.29,8.35.66l2.45,5.37Z"></path>
      <path class="cls-3" d="M428,130.61c-.1-5-.32-8.23-.44-13.11,1.53-.4,3,.57,4.22,1.46-.2,6.24-.2,6.17-.31,12.67H428Z"></path>
      <path class="cls-3" d="M427.32,102.11c-.83-4.86-.88-5.24-1.35-8.8h-3.12V89.87c5.39,0,8.36,0,13.73,0l0,3.43h-3.21L432,104.81A12.76,12.76,0,0,0,427.32,102.11Z"></path>
      <path class="cls-3" d="M426.77,87.41c-4.61-4.91-4.94-12.28-4-19v0a8.84,8.84,0,0,0,4.88,5.41c-.26-1.31-1.42-2.52-1.79-3.91-1.09-2.68-1-6.52.77-8.89a8.59,8.59,0,0,1,5-3.25,10.54,10.54,0,0,0-.06,7.16,20,20,0,0,0,2.35-2c.38-.34.56-.47.87-.71,1.83,3.89,3.91,9.28,2.71,13.84l-.76,2c-.3-3.23-.82-4.75-3-5.92-.28,1.88.9,3.21,1.2,5.63.86,3.81.18,7.53-2.17,9.71Z"></path>
      <path class="cls-3" d="M483.43,78.86l-4.74,5.19c-1.27-1.19-1.38-1.34-2.67-2.69,2.44-2.54,2.69-2.82,5.51-5.84"></path>
      <path class="cls-3" d="M489.62,66.22c1-4.49,1.48-9.69,6.42-11.57a6.68,6.68,0,0,1,6,1.13,6.16,6.16,0,0,1,2.23,6.52c-1.48,5.24-7.29,6.21-12,7.45Z"></path>
      <polygon class="cls-3" points="522.42 139.05 522.42 149.84 485.5 149.8 485.5 139.05 522.42 139.05"></polygon>
      <path class="cls-3" d="M433.26,211.17c-1.5-6.84,6.73-9.29,8.67-14.95,1.53-9.46,2-19.43,8.59-26.81.65-13.93,5.14-26.22,15-36.32-.48-3.13-1.75-5.86-2.69-8.8a4.52,4.52,0,0,1-3.34-1.33,7.39,7.39,0,0,1-1.44-3.59c-3.43,4.27-7.7,9.07-12.39,11.95-.86.46-2-.54-3.52-2-5.76-4.53-6.73-14.83-15.52-14.37-4-1.34-3.8-6-4.43-9.56,1.47-1.07,3.86-1,5.66-.32,5.47,2.92,9.11,9.09,14.29,13.22,1.38,1.1,2.63,2.57,3.89,3.08,3.4-2.92,6.14-5.41,8.42-9.95a8.23,8.23,0,0,1,7.18-3.71l2.08-2.46-1.12-6.12a45.08,45.08,0,0,1-5.31-8.69c.72-3.51,1.2-7.61,4.76-9.53,2.32-1.46,4.22,1.84,6.14-.26a4.13,4.13,0,0,1,3.55.88c1.44,2.51,3.16,5,3.25,7.94a53.46,53.46,0,0,1-3.57,8.13c-.31.6-1.12.77-1.67,1.19a7.88,7.88,0,0,0,1.44,3.48,8,8,0,0,0,3.34.2c1-3.12,4.37-4.52,7.14-5.33l6.14-4c-1-4.61,2-8.7.33-13.34-3.5-1.62-4.51-5.6-5.25-8.7a15,15,0,0,1,2.88-5.6l.23.23c3.34,3.89,6.4,7.9,7.45,12.72a114,114,0,0,1,.79,18.92c-3.28,3.29-7.28,5.24-11,7.71l-2.77,5.33c-.35,5.53-1.95,10.5-2.8,15.83,2.38,6.46,5.19,15,3.12,21-1.57,3.57-4.94,5.51-7.44,7.47l-6.25,5c6.28,6.94,4.77,14.81,5.05,24.85-.06,2.44,4.26,4.47,1.94,7.23-1.91,3.09-4.94,5.62-4.44,9.7-1.91,3.2-6.53,3.92-8.7,3.89a.78.78,0,0,1-.85-.79c.46-1.66,1.75-3,2.45-4.55,2.25-3.43,1.21-8.17,4-11.37-2.28-7.47-5.74-14.39-6.67-22.36l-.08-.5c-1.86,3.65-.84,7.26.14,10.13-6.17,7.8-12.86,15.3-12.86,25.55-2.66,4.67-6.42,9-8.36,13.91-.67.82-1.89.11-2.64-.33A6.66,6.66,0,0,1,433.26,211.17Z"></path>
      <path class="cls-3" d="M501.05,177.54c5.92,5.84,16.19,14,17,17.41.88,2.31.59,5.1.64,7.79-1.7,1.36-3.12,2.52-5.19,4.13.15-4.1.73-8.28-1.26-10.71-4.83-4.84-9.22-9.2-13.59-13.47-1.62-1.74-2.92-4.26-1.84-6.58a19.34,19.34,0,0,1,1.93-3.39A6.18,6.18,0,0,0,501.05,177.54Z"></path>
      <path class="cls-3" d="M510.64,204.19c-1.14,1.25-1.56,1.72-2.88,3l-2.7-3.25v-9c-3.81,1.85-2.87,7.24-2.87,11.92-2.27-1.82-3.42-2.86-5.57-4.9-1.22-5.39,2-8.46,4.46-12.24l9.56,9.12Z"></path>
      <path class="cls-3" d="M494.66,232a8.51,8.51,0,0,0,1.14-4.06H474.7a10,10,0,0,0,4.36,7.73,11.08,11.08,0,0,0,11.06.79A11.52,11.52,0,0,0,494.66,232Z"></path>
      <path class="cls-2" d="M471.16,278.06c-.12-5.85,5.63-8.82,9.24-12.71A4,4,0,0,0,481,261a2.59,2.59,0,0,0-1.84-1.62,3.37,3.37,0,0,0-3.14.6,4.73,4.73,0,0,0-1.39,3.85l-4,.24a7.6,7.6,0,0,1,1.53-6.06c1.88-2,4.69-2.56,7.42-2.39,2.19.36,4.74,1.71,5.65,4a7.3,7.3,0,0,1-1.09,7.74c-2.34,2.52-5.45,3.89-7.41,6.75l10.13-.6c.08,1.26.16,2.45.22,3.6Z"></path>
      <path class="cls-2" d="M435.22,252.75l-.08.18-6.59,20.25-4.22-1.4,4.53-13.86.08-.22c-1.68-.59-3.7-1.17-5.35-1.74l.86-2.63c2.14.55,4.32.93,6.19-.63a8,8,0,0,0,1.15-1Z"></path>
      <path class="cls-2" d="M515.38,264a5.47,5.47,0,0,0-3.85-4.25l-1.3-.29a4.65,4.65,0,0,0,2.09-4.61,5.23,5.23,0,0,0-3.7-4.14,9.84,9.84,0,0,0-5.43.07,10.17,10.17,0,0,0-4.85,2.45,5.35,5.35,0,0,0-1.35,5.4c.45,1.83,2.41,2.91,4,3.14l-1,.84a5.44,5.44,0,0,0-1.45,5.55,6.42,6.42,0,0,0,4.48,4.62,11.77,11.77,0,0,0,5.59-.07,11.56,11.56,0,0,0,5-2.52,6.45,6.45,0,0,0,1.81-6.19m-13.93-5.78a2.78,2.78,0,0,1,.4-3.24,4.25,4.25,0,0,1,2.09-1.15,4.33,4.33,0,0,1,2.4.05,2.81,2.81,0,0,1,1.84,2.67,2.65,2.65,0,0,1-.86,1.9,5.35,5.35,0,0,1-4.22,1,2.66,2.66,0,0,1-1.65-1.27m8.87,9.76a5.12,5.12,0,0,1-2.54,1.35,5,5,0,0,1-2.89,0,3.35,3.35,0,0,1-.84-5.82,6.71,6.71,0,0,1,2.05-.91,6.53,6.53,0,0,1,2.23-.15,3.25,3.25,0,0,1,2.76,2.7A3.34,3.34,0,0,1,510.32,267.94Z"></path>
      <path class="cls-2" d="M460.69,271.54a5.43,5.43,0,0,0-2.44-5.17l-1.12-.67a4.75,4.75,0,0,0,3.37-3.8,5.36,5.36,0,0,0-2.3-5,10,10,0,0,0-5.22-1.54,9.86,9.86,0,0,0-5.34.9,5.3,5.3,0,0,0-2.92,4.73,4.83,4.83,0,0,0,2.9,4.21l-1.22.5a5.44,5.44,0,0,0-3,4.84,6.45,6.45,0,0,0,2.9,5.77,12,12,0,0,0,5.35,1.59,11.64,11.64,0,0,0,5.51-.95,6.39,6.39,0,0,0,3.56-5.37m-11.58-9.64a2.8,2.8,0,0,1,1.33-3,4.15,4.15,0,0,1,2.35-.46,4.08,4.08,0,0,1,2.27.75,2.83,2.83,0,0,1,1,3.11,2.64,2.64,0,0,1-1.39,1.53,4.66,4.66,0,0,1-2.2.33,4.38,4.38,0,0,1-2.14-.6,2.52,2.52,0,0,1-1.2-1.68m5.55,11.94a4.81,4.81,0,0,1-2.84.53,4.87,4.87,0,0,1-2.73-.86,3.33,3.33,0,0,1-1.31-2.66A3.27,3.27,0,0,1,450,267.7a6.24,6.24,0,0,1,4.39.26,3.3,3.3,0,0,1,1.84,3.41A3.27,3.27,0,0,1,454.66,273.84Z"></path>
      <polygon class="cls-2" points="555.96 66.24 536.26 74.73 534.48 70.61 554.18 62.12 555.96 66.24"></polygon>
      <path class="cls-2" d="M481.74,32.16,476.69,10.1l4.66.47c.95,5.46,1.9,11.67,3,16.27,2-4.29,4.21-10.17,6.21-15.32l4.6.46-9.32,20.6Z"></path>
      <polygon class="cls-2" points="397.97 44.83 393.19 53.39 389.17 51.14 394.63 41.3 391.54 39.55 383.86 53.32 402.59 63.78 410.26 50.01 407.16 48.28 401.65 58.14 396.41 55.2 401.22 46.63 397.97 44.83"></polygon>
      <path class="cls-2" d="M386.6,135.94c-1-2.31-3.47-3.21-6-3.08a5.84,5.84,0,0,0-4.72,3.94,4.31,4.31,0,0,0-3.61-3.19c-2.14-.28-4.19.32-5.25,2.12-1.41,1.82-.78,9.82-.93,14.42l21.28-.05v-1.54c-.1-8.46.39-9.48-.73-12.62m-12.07,9.72h-5.26c.16-4.92-.67-7.56,2.33-7.88,1.8-.14,2.29.28,2.69,1.34s.24,2.28.24,6.54m9.25,0h-6c.09-4.75-.66-7.56,2.18-8.12a3.16,3.16,0,0,1,2.94.58C384.11,139.28,383.72,141.24,383.78,145.64Z"></path>
      <polygon class="cls-2" points="556.14 78.15 559.54 77.27 563.85 94.05 560.45 94.93 558.86 88.72 541.64 93.17 540.51 88.83 557.73 84.39 556.14 78.15"></polygon>
      <path class="cls-2" d="M447.87,33.43A10,10,0,0,1,441,32.37a5.17,5.17,0,0,1-2.61-3.83L436,13.22l4.37-.71,2.48,15.32a3,3,0,0,0,2.51,2.27,4.72,4.72,0,0,0,2.05,0"></path>
      <path class="cls-2" d="M447.93,33.41a9.86,9.86,0,0,0,6.14-3.12,5.25,5.25,0,0,0,1.3-4.47L452.89,10.5l-4.35.7L451,26.52a3.19,3.19,0,0,1-1.7,2.95,5,5,0,0,1-1.94.66"></path>
      <path class="cls-2" d="M566,108.52l-22.28-4.46.63,4.35,4.83.89L550.3,117l-4.41,2.19.59,4.36,20.2-10.42-.64-4.58m-12.38,6.77-.75-5.3,9.26,1.41h0l0,0Z"></path>
      <path class="cls-2" d="M562.82,145.38l.4-.07.48-.13.35-.12c1.41-.77,1.76-2.64,1.68-4.19s-.53-3.11-2-3.69a1.93,1.93,0,0,0-2.23.51c-2.4,3.57-.72,11.17-7,12.5A6.29,6.29,0,0,1,548,147.3c-1.94-3.47-2.09-8.86.12-12.23a6.65,6.65,0,0,1,5.33-2.8l.24,4.09a4,4,0,0,0-3.25,2.19c-.91,2.15-.68,5.55.89,6.81a2.41,2.41,0,0,0,2.63.19c2.48-1.79,2-6.23,3.22-9.19a6.2,6.2,0,0,1,2.75-3.18,6.29,6.29,0,0,1,6.77,1.14c2.87,2.7,3,8,1.67,11.17a6.4,6.4,0,0,1-5.66,4l-.26-4.13Z"></path>
      <path class="cls-2" d="M390.24,113a9.83,9.83,0,0,1-3.1,6.15,5.17,5.17,0,0,1-4.46,1.33l-15.32-2.41.68-4.35,15.33,2.38a3.11,3.11,0,0,0,2.94-1.7,5.14,5.14,0,0,0,.65-1.92"></path>
      <path class="cls-2" d="M390.24,113a9.91,9.91,0,0,0-1.05-6.84,5.26,5.26,0,0,0-3.85-2.61L370,101.14l-.68,4.38,15.33,2.41a3.13,3.13,0,0,1,2.27,2.52,4.91,4.91,0,0,1,0,2.06"></path>
      <path class="cls-2" d="M414,21.35l-3.94,2.4L414.81,46l3.76-2.27-1.11-4.8,6.62-4,3.76,3.19,3.75-2.28L414,21.35m2.6,13.87-2.38-9.06v0h0v0l0,0,6.93,6.29Z"></path>
      <polygon class="cls-2" points="518.1 28.33 509.05 24.54 510.84 20.27 521.22 24.6 522.6 21.34 508.06 15.25 499.79 35.06 514.33 41.12 515.68 37.85 505.3 33.49 507.61 27.95 516.67 31.75 518.1 28.33"></polygon>
      <path class="cls-2" d="M387.55,75.86c0-1.49-.08-2.71-1.3-3.88a6.2,6.2,0,0,0-4.89-1.66c-4.77.73-5.42,6.22-8.05,14.89l20.54,6.11,1.28-4.27L387,84.63l-.34-.09a29,29,0,0,1,1.76-5c1.48-3.4,6.92-.07,9.06-.4l1.26-4.25c-3.67.21-8.59-3.07-11.19,1m-4.26,7.67-5.37-1.6c1.17-3.67,1.69-7.36,4.27-7.14a3.28,3.28,0,0,1,2.36,1.2C385.54,77.24,384.26,80,383.29,83.53Z"></path>
      <path class="cls-2" d="M537.39,33.16l-17,13,2.7,3.54,6.73-5.13.3-.2a30.41,30.41,0,0,1,3,4.36c1.88,3.2-4,5.63-5,7.56l2.69,3.51c2-3.07,7.55-5.13,5.81-9.61,1.2.86,2.24,1.52,3.89,1.23a6.33,6.33,0,0,0,4.24-3c2.19-4.28-1.86-8-7.33-15.25m3.21,13.31a3.59,3.59,0,0,1-2.35,1.22c-1.61.06-3.06-2.61-5.34-5.46l4.44-3.41C539.62,41.92,542.31,44.5,540.6,46.47Z"></path>
      <path class="cls-3" d="M31.57,197V171.64H41c4,0,7.36,1.16,7.36,6.56,0,2.91-1.44,5-4.31,5.57v.07c3.75.53,4.73,2.95,4.73,6.42,0,6.41-5.57,6.69-7.82,6.69Zm5.3-15h3.54c1.15,0,2.77-.77,2.77-3.22a3,3,0,0,0-3-3.23H36.87Zm0,11.08h2.94c1.12,0,3.65,0,3.65-3.58,0-2.24-.85-3.61-3.51-3.61H36.87Z"></path>
      <path class="cls-3" d="M70,171.64v18c0,3.79-2.14,7.78-8.59,7.78-5.82,0-8.62-3-8.62-7.78v-18h5.29v17.6c0,3.12,1.33,4.35,3.26,4.35,2.31,0,3.36-1.54,3.36-4.35v-17.6Z"></path>
      <path class="cls-3" d="M79.53,197h-5.3V171.64H84c3.61,0,5.92,2.32,5.92,6.63,0,3.22-1.26,5.64-4.7,6.2v.07c1.16.14,4.59.42,4.59,5,0,1.61.11,6.38.6,7.43H85.24a11.6,11.6,0,0,1-.56-4.9c0-3,.28-5.58-3.78-5.58H79.53Zm0-14.37h2.35c2.1,0,2.7-2.1,2.7-3.72,0-2.41-1-3.33-2.7-3.33H79.53Z"></path>
      <path class="cls-3" d="M93.83,197V171.64h13.81v3.89H99.12v6.24H107v3.89H99.12v7.4h8.8V197Z"></path>
      <path class="cls-3" d="M109.43,197l7-25.31h7L130.29,197h-5.57l-1.41-5.6h-7.22l-1.44,5.6Zm10.2-20.43h-.07l-2.42,10.93h5Z"></path>
      <path class="cls-3" d="M149.89,171.64v18c0,3.79-2.14,7.78-8.59,7.78-5.82,0-8.63-3-8.63-7.78v-18H138v17.6c0,3.12,1.33,4.35,3.26,4.35,2.31,0,3.36-1.54,3.36-4.35v-17.6Z"></path>
      <path class="cls-3" d="M160,171.64h5.5l3.93,18.41h.07l4.41-18.41h5.23L172.39,197h-6.2Z"></path>
      <path class="cls-3" d="M181.47,197V171.64h13.81v3.89h-8.52v6.24h7.86v3.89h-7.86v7.4h8.8V197Z"></path>
      <path class="cls-3" d="M204.19,197h-5.3V171.64h9.78c3.62,0,5.93,2.32,5.93,6.63,0,3.22-1.26,5.64-4.7,6.2v.07c1.16.14,4.59.42,4.59,5,0,1.61.11,6.38.6,7.43H209.9a11.6,11.6,0,0,1-.56-4.9c0-3,.28-5.58-3.79-5.58h-1.36Zm0-14.37h2.35c2.1,0,2.7-2.1,2.7-3.72,0-2.41-1-3.33-2.7-3.33h-2.35Z"></path>
      <path class="cls-3" d="M218.49,197V171.64h5.29V197Z"></path>
      <path class="cls-3" d="M243.31,171.64v4.21h-5.89V197h-5.29v-21.1h-5.89v-4.21Z"></path>
      <path class="cls-3" d="M241.74,197l7-25.31h7L262.6,197H257l-1.4-5.6H248.4L247,197Zm10.2-20.43h-.07l-2.42,10.93h5.05Z"></path>
      <path class="cls-3" d="M272,197.37c-6.56,0-7.79-3.85-7.5-8.23h5.29c0,2.42.1,4.45,3,4.45,1.79,0,2.67-1.16,2.67-2.88,0-4.55-10.66-4.84-10.66-12.37,0-4,1.89-7.12,8.34-7.12,5.16,0,7.72,2.32,7.37,7.61h-5.16c0-1.89-.31-3.82-2.45-3.82a2.47,2.47,0,0,0-2.74,2.7c0,4.8,10.66,4.38,10.66,12.34C280.79,196.6,276,197.37,272,197.37Z"></path>
      <path class="cls-3" d="M31,220.76c0-5.95,0-11.62,7.76-11.62,4.8,0,6.73,2.65,6.54,7.48H40.73c0-3-.53-4.12-1.93-4.12-2.65,0-3,2.5-3,8.26s.34,8.26,3,8.26c2.18,0,2.09-2.81,2.15-4.58h4.64c0,6-2.4,7.94-6.79,7.94C31,232.38,31,226.65,31,220.76Z"></path>
      <path class="cls-3" d="M52.41,224.84c0,1.87.07,4.68,2,4.68,1.56,0,1.87-1.5,1.87-2.81h4.45a5.56,5.56,0,0,1-1.68,4.08,6.57,6.57,0,0,1-4.64,1.53c-5.67,0-6.42-3.46-6.42-8.38,0-4.3.62-8,6.42-8s6.57,3.83,6.42,8.88Zm4-2.46c0-1.53.07-3.71-2-3.71s-2,2.37-2,3.71Z"></path>
      <path class="cls-3" d="M68.12,216.27v2h.06A4,4,0,0,1,72.26,216v3.93c-3.86-.25-3.92,2-3.92,3.55V232h-4.4V216.27Z"></path>
      <path class="cls-3" d="M72.54,216.27h1.78v-2.49l4.39-2v4.45H81V219H78.71v8.42c0,1.18,0,2,1.41,2a3.17,3.17,0,0,0,.78-.06V232a18.51,18.51,0,0,1-2.28.16c-3.8,0-4.3-2.53-4.3-3.49V219H72.54Z"></path>
      <path class="cls-3" d="M87.75,209.51V213H83.36v-3.46Zm0,22.5H83.36V216.27h4.39Z"></path>
      <path class="cls-3" d="M98.41,212.22c-1.78-.12-2.15.56-2.15,2.15v1.9h2V219h-2v13h-4.4V219h-2v-2.71h2c0-4.51-.41-6.92,4.95-6.92.53,0,1,0,1.56.07Z"></path>
      <path class="cls-3" d="M105.08,209.51V213h-4.4v-3.46Zm0,22.5h-4.4V216.27h4.4Z"></path>
      <path class="cls-3" d="M117,221.88c0-2.34-.59-3.11-2-3.11-1.87,0-2,1.65-2,4.92,0,4.8.41,5.83,2,5.83,1.37,0,2-1.25,2-3.31h4.4c0,4.27-2.31,6.11-6.42,6.11-5.67,0-6.42-3.46-6.42-8.38,0-4.3.62-8,6.42-8,4,0,6.35,1.81,6.35,5.92Z"></path>
      <path class="cls-3" d="M136.49,229.08a28.88,28.88,0,0,0,.22,2.93h-4.09l-.18-2.09h-.07a4.35,4.35,0,0,1-4.11,2.4c-3,0-4.18-2.27-4.18-5,0-5.2,4-5.42,8.11-5.36v-1.21c0-1.34-.19-2.31-1.78-2.31s-1.65,1.16-1.65,2.4h-4.3a4.3,4.3,0,0,1,1.62-3.83,6.82,6.82,0,0,1,4.11-1c5.58,0,6.3,2.4,6.3,5.27Zm-8.1-2c0,1.12.18,2.49,1.62,2.49,2.58,0,2.18-3.49,2.18-5.2C130,224.5,128.39,224.31,128.39,227.12Z"></path>
      <path class="cls-3" d="M138.36,216.27h1.77v-2.49l4.4-2v4.45h2.27V219h-2.27v8.42c0,1.18,0,2,1.4,2a3.17,3.17,0,0,0,.78-.06V232a18.36,18.36,0,0,1-2.28.16c-3.8,0-4.3-2.53-4.3-3.49V219h-1.77Z"></path>
      <path class="cls-3" d="M153.56,209.51V213h-4.39v-3.46Zm0,22.5h-4.39V216.27h4.39Z"></path>
      <path class="cls-3" d="M157.08,223.94c0-4.3.63-8,6.42-8s6.42,3.68,6.42,8c0,4.92-.74,8.38-6.42,8.38S157.08,228.86,157.08,223.94Zm8.45-.25c0-3.27-.16-4.92-2-4.92s-2,1.65-2,4.92c0,4.8.4,5.83,2,5.83S165.53,228.49,165.53,223.69Z"></path>
      <path class="cls-3" d="M177.43,217.86h.07a3.64,3.64,0,0,1,1.55-1.46,4.78,4.78,0,0,1,2.15-.44c2.09,0,3.93,1.25,3.93,3.43V232h-4.39V221.17c0-1.41-.25-2.5-1.66-2.5s-1.65,1.09-1.65,2.5V232H173V216.27h4.39Z"></path>
      <path class="cls-3" d="M32.05,93.32v-24h4.48v24Z"></path>
      <path class="cls-3" d="M50.07,76.62a7.55,7.55,0,0,0-.52-3.17,2.1,2.1,0,0,0-2.11-1.09,2.8,2.8,0,0,0-1.82.53A2.09,2.09,0,0,0,45,74.6a2.73,2.73,0,0,0,.59,1.88A11,11,0,0,0,47.47,78l.07,0L49,79l1.38.94c.47.33.94.68,1.42,1A14.07,14.07,0,0,1,53,82a6.39,6.39,0,0,1,1.57,2.26A7.71,7.71,0,0,1,55,87a6.51,6.51,0,0,1-2,5.12A7.84,7.84,0,0,1,47.6,93.9a9.63,9.63,0,0,1-3.36-.53A5.66,5.66,0,0,1,42,91.88a5.78,5.78,0,0,1-1.26-2.28,10.33,10.33,0,0,1-.4-3V84.84h4.48v1.41a5.68,5.68,0,0,0,.65,3,2.38,2.38,0,0,0,2.16,1,2.47,2.47,0,0,0,2.79-2.81,3.47,3.47,0,0,0-.45-1.79,4.31,4.31,0,0,0-1.35-1.38c-.51-.4-1.32-1-2.43-1.7a33.85,33.85,0,0,1-2.77-1.95,11.54,11.54,0,0,1-1.87-1.89,6.38,6.38,0,0,1-1.15-3.68,6.12,6.12,0,0,1,1.76-4.72,7.6,7.6,0,0,1,5.28-1.61,8.27,8.27,0,0,1,3.89.78,5.12,5.12,0,0,1,2.11,2,6.77,6.77,0,0,1,.82,2.34,19.43,19.43,0,0,1,.16,2.52v.26Z"></path>
      <path class="cls-3" d="M58.48,79.4c.07-1.85.18-3.37.35-4.56a9.62,9.62,0,0,1,1-3.16,5.08,5.08,0,0,1,2.32-2.16,9.42,9.42,0,0,1,4.16-.77,9.39,9.39,0,0,1,4.16.77,5,5,0,0,1,2.32,2.16,9.39,9.39,0,0,1,1,3.16,43.06,43.06,0,0,1,.35,4.56v3.43a40.93,40.93,0,0,1-.22,4.72,9.36,9.36,0,0,1-1,3.31,5.31,5.31,0,0,1-2.37,2.24,9.66,9.66,0,0,1-4.26.8,9.58,9.58,0,0,1-4.25-.8,5.21,5.21,0,0,1-2.37-2.24,9.36,9.36,0,0,1-1-3.31,40.63,40.63,0,0,1-.23-4.72Zm4.61,5.67a14.57,14.57,0,0,0,.1,1.82,6,6,0,0,0,.41,1.62,3,3,0,0,0,1,1.28,2.83,2.83,0,0,0,1.74.49,3,3,0,0,0,1.81-.51,2.79,2.79,0,0,0,1-1.33,6.8,6.8,0,0,0,.36-1.68,20.61,20.61,0,0,0,.08-2.08V78.54c0-.83,0-1.57-.08-2.21a8,8,0,0,0-.38-1.87,3.31,3.31,0,0,0-1-1.5,2.57,2.57,0,0,0-1.79-.6,2.83,2.83,0,0,0-1.74.5,3,3,0,0,0-1,1.34,7.22,7.22,0,0,0-.41,1.86,23.16,23.16,0,0,0-.1,2.35Z"></path>
      <path class="cls-3" d="M97.07,69.71V84.94h2.05v3.52H97.07v4.86H92.59V88.46H84.82V84.94l7.26-15.23ZM92.59,84.94V75.21h-.06l-4.42,9.73Z"></path>
      <path class="cls-3" d="M101.49,82.28l.61-12.57h11.55v3.52h-8.1l-.28,5.12a4.7,4.7,0,0,1,1.56-1.06,5.62,5.62,0,0,1,1.92-.29,5.94,5.94,0,0,1,3.09.72,4.86,4.86,0,0,1,1.83,1.91,8.24,8.24,0,0,1,.84,2.61,19.49,19.49,0,0,1,.23,3.05q0,4.29-1.49,6.4t-5.14,2.11q-3.9,0-5.37-1.84c-1-1.22-1.47-3.29-1.47-6.19h4.19v.61c0,.58.05,1.06.08,1.46a4.31,4.31,0,0,0,.25,1.13,2,2,0,0,0,1.91,1.31,2.43,2.43,0,0,0,1.39-.36,2.12,2.12,0,0,0,.77-1,5.11,5.11,0,0,0,.3-1.34c0-.46.08-1.06.1-1.81v-.86a2.86,2.86,0,0,0,0-.32,5.38,5.38,0,0,0-.67-3.17,2.29,2.29,0,0,0-1.92-.87,2.41,2.41,0,0,0-1.49.5,1.79,1.79,0,0,0-.75,1.26Z"></path>
      <path class="cls-3" d="M117.62,76.11q0-3.67,1.65-5.28a8.09,8.09,0,0,1,9.66,0q1.65,1.61,1.65,5.28V86.89c0,2.46-.55,4.22-1.65,5.3a8,8,0,0,1-9.66,0c-1.1-1.08-1.65-2.84-1.65-5.3Zm4.48,10.78a5,5,0,0,0,.51,2.66,1.65,1.65,0,0,0,1.44.73,1.75,1.75,0,0,0,1.5-.73,4.64,4.64,0,0,0,.55-2.66V76.11a4.59,4.59,0,0,0-.55-2.63,1.75,1.75,0,0,0-1.5-.73,1.66,1.66,0,0,0-1.44.72,4.86,4.86,0,0,0-.51,2.64Z"></path>
      <path class="cls-3" d="M133.62,76.11q0-3.67,1.65-5.28a8.09,8.09,0,0,1,9.66,0q1.65,1.61,1.65,5.28V86.89c0,2.46-.55,4.22-1.65,5.3a8,8,0,0,1-9.66,0c-1.1-1.08-1.65-2.84-1.65-5.3Zm4.48,10.78a5,5,0,0,0,.51,2.66,1.65,1.65,0,0,0,1.44.73,1.75,1.75,0,0,0,1.5-.73,4.64,4.64,0,0,0,.55-2.66V76.11a4.59,4.59,0,0,0-.55-2.63,1.75,1.75,0,0,0-1.5-.73,1.66,1.66,0,0,0-1.44.72,4.86,4.86,0,0,0-.51,2.64Z"></path>
      <path class="cls-3" d="M154.9,76.68h-5.41v-3.2a9.08,9.08,0,0,0,4.27-.94,4.91,4.91,0,0,0,2.32-3.22h3.3v24H154.9Z"></path>
    </g>
  </g>
</svg>
