<svg id="Capa_5" data-name="Capa 5" xmlns="http://www.w3.org/2000/svg" viewBox="0 0 106.74 39.83"><defs><style>.cls-1{fill:#fff;}</style></defs><path class="cls-1" d="M1329-12.47v19h-7.41V-19.78c.29,0,.58-.06.87-.06,3,0,5.94,0,8.91,0a1.1,1.1,0,0,1,1.24.88c2.27,6.2,4.58,12.37,6.85,18.56.23.62.45,1,1.19,1A1.25,1.25,0,0,0,1342-.36c2.35-6.2,4.75-12.38,7.1-18.57a1.19,1.19,0,0,1,1.33-.93c2.53,0,5.06,0,7.6,0,.29,0,.59,0,.93.05V6.52h-6.42V-12.37l-.18,0c-.13.31-.28.62-.4.93-2.31,5.64-4.63,11.28-6.91,16.94a1.27,1.27,0,0,1-1.4,1c-1.79-.07-3.58-.07-5.37,0a1.15,1.15,0,0,1-1.26-.87q-3.66-8.55-7.38-17.07c-.14-.34-.31-.68-.47-1Z" transform="translate(-1321.6 19.86)"/><path class="cls-1" d="M1428.34-8.69V6.42h-1.14c-6.38,0-12.76,0-19.14,0A9,9,0,0,1,1399.4.76a16.57,16.57,0,0,1-.48-13.17,10.56,10.56,0,0,1,10-7.23c6.3-.26,12.62-.06,18.93-.06a4.29,4.29,0,0,1,.53.08v4.16h-1.12c-5.54,0-11.07.06-16.61,0a4.4,4.4,0,0,0-4.18,2.57,11.77,11.77,0,0,0-1.3,5.6,14.7,14.7,0,0,0,1.13,6.92c.92,1.93,2.24,3.12,4.53,3,3.13-.16,6.28,0,9.42,0h1.16v-6.5h-9.46V-8.69Z" transform="translate(-1321.6 19.86)"/><path class="cls-1" d="M1373.17-2.7V6.35h-7.49v-26a3.83,3.83,0,0,1,.56-.09c7.32,0,14.64,0,22,0,4,0,6.45,2.7,6.47,6.9,0,.88,0,1.76,0,2.65,0,4.59-2.68,7.38-7.08,7.41s-8.77,0-13.16,0Zm.08-12.74v8.8c3.52,0,7,.09,10.38-.06a6.5,6.5,0,0,0,3.09-1.13,3.82,3.82,0,0,0,.54-5.78,5.29,5.29,0,0,0-3.67-1.79C1380.16-15.51,1376.73-15.44,1373.25-15.44Z" transform="translate(-1321.6 19.86)"/><path class="cls-1" d="M1321.66,9.17h1.82V19.85h-1.82Zm.73,0h4.93V11h-4.93Zm0,4.45h4.37v1.84h-4.37Zm0,4.37h4.93v1.86h-4.93Z" transform="translate(-1321.6 19.86)"/><path class="cls-1" d="M1328.65,9.17h1.82V19.85h-1.82Zm.78,8.84h4.81v1.84h-4.81Z" transform="translate(-1321.6 19.86)"/><path class="cls-1" d="M1335.4,9.17h1.82V19.85h-1.82Zm.72,0h4.94V11h-4.94Zm0,4.45h4.38v1.84h-4.38Zm0,4.37h4.94v1.86h-4.94Z" transform="translate(-1321.6 19.86)"/><path class="cls-1" d="M1343.69,19.57a2.53,2.53,0,0,1-1-1.14,4.19,4.19,0,0,1-.37-1.82V12.42a4.15,4.15,0,0,1,.37-1.82,2.5,2.5,0,0,1,1-1.15,3.3,3.3,0,0,1,1.65-.39,3.06,3.06,0,0,1,1.6.39,2.7,2.7,0,0,1,1,1.2,6,6,0,0,1,.42,2h-1.87a3.47,3.47,0,0,0-.19-1,1.13,1.13,0,0,0-.39-.56,1,1,0,0,0-.59-.18,1.19,1.19,0,0,0-.64.16,1.18,1.18,0,0,0-.41.49,2.05,2.05,0,0,0-.14.78v4.19a1.93,1.93,0,0,0,.14.77,1.18,1.18,0,0,0,.41.49,1.19,1.19,0,0,0,.64.16,1,1,0,0,0,.6-.18,1.31,1.31,0,0,0,.39-.57,3.73,3.73,0,0,0,.18-1h1.87a6,6,0,0,1-.43,2.05,2.68,2.68,0,0,1-1,1.2,3.06,3.06,0,0,1-1.6.39A3.3,3.3,0,0,1,1343.69,19.57Z" transform="translate(-1321.6 19.86)"/><path class="cls-1" d="M1348.76,9.17H1355V11h-6.27Zm2.22.89h1.83v9.79H1351Z" transform="translate(-1321.6 19.86)"/><path class="cls-1" d="M1356,9.16h1.81V19.85H1356Zm.77,4.44h2.68a.88.88,0,0,0,.46-.12.83.83,0,0,0,.3-.34,1.38,1.38,0,0,0,.1-.52V12a1.44,1.44,0,0,0-.1-.54.82.82,0,0,0-.3-.36.85.85,0,0,0-.46-.12h-2.68V9.16h2.71a2.89,2.89,0,0,1,1.44.34,2.26,2.26,0,0,1,.94,1,3.19,3.19,0,0,1,.33,1.5v.62a3.31,3.31,0,0,1-.33,1.52,2.31,2.31,0,0,1-.94,1,2.89,2.89,0,0,1-1.44.34h-2.71Zm1.78,1.51,1.82-.33,2.18,5.07h-2.09Z" transform="translate(-1321.6 19.86)"/><path class="cls-1" d="M1365,19.57a2.64,2.64,0,0,1-1.1-1.12,3.53,3.53,0,0,1-.38-1.7V12.28a3.61,3.61,0,0,1,.38-1.72,2.67,2.67,0,0,1,1.1-1.11,3.77,3.77,0,0,1,3.34,0,2.62,2.62,0,0,1,1.1,1.11,3.61,3.61,0,0,1,.39,1.72v4.47a3.53,3.53,0,0,1-.39,1.7,2.59,2.59,0,0,1-1.1,1.12,3.77,3.77,0,0,1-3.34,0Zm2.36-1.69a1.16,1.16,0,0,0,.44-.49,1.6,1.6,0,0,0,.16-.75V12.37a1.58,1.58,0,0,0-.16-.74,1.16,1.16,0,0,0-.44-.49,1.41,1.41,0,0,0-.69-.17,1.34,1.34,0,0,0-.68.17,1.25,1.25,0,0,0-.45.49,1.72,1.72,0,0,0-.16.74v4.27a1.73,1.73,0,0,0,.16.75,1.25,1.25,0,0,0,.45.49,1.34,1.34,0,0,0,.68.17A1.41,1.41,0,0,0,1367.38,17.88Z" transform="translate(-1321.6 19.86)"/><path class="cls-1" d="M1377.09,9.17h2.08V19.85h-1.65V12l.09.47-1.71,5.87h-1.28l-1.71-5.72.1-.62v7.88h-1.66V9.17h2.09l1.82,6.49Z" transform="translate(-1321.6 19.86)"/><path class="cls-1" d="M1380.91,9.17h1.82V19.85h-1.82Zm.73,0h4.94V11h-4.94Zm0,4.45H1386v1.84h-4.37Zm0,4.37h4.94v1.86h-4.94Z" transform="translate(-1321.6 19.86)"/><path class="cls-1" d="M1389.21,19.57a2.53,2.53,0,0,1-1-1.14,4,4,0,0,1-.37-1.82V12.42a4,4,0,0,1,.37-1.82,2.5,2.5,0,0,1,1-1.15,3.25,3.25,0,0,1,1.65-.39,3.06,3.06,0,0,1,1.6.39,2.68,2.68,0,0,1,1,1.2,5.72,5.72,0,0,1,.43,2H1392a3.47,3.47,0,0,0-.19-1,1.2,1.2,0,0,0-.39-.56,1,1,0,0,0-.59-.18,1.19,1.19,0,0,0-.64.16,1.11,1.11,0,0,0-.41.49,2.05,2.05,0,0,0-.14.78v4.19a1.93,1.93,0,0,0,.14.77,1.11,1.11,0,0,0,.41.49,1.19,1.19,0,0,0,.64.16,1,1,0,0,0,.59-.18,1.16,1.16,0,0,0,.39-.57,3.32,3.32,0,0,0,.19-1h1.87a5.94,5.94,0,0,1-.44,2.05,2.66,2.66,0,0,1-1,1.2,3.08,3.08,0,0,1-1.6.39A3.25,3.25,0,0,1,1389.21,19.57Z" transform="translate(-1321.6 19.86)"/><path class="cls-1" d="M1397.47,9.17h1.22l3.15,10.68H1400l-1.87-7.14-1.88,7.14h-1.89Zm-1.4,7.18h4.06v1.82h-4.06Zm1.1-9L1399,5.47l1.27,1.33-2,1.7Z" transform="translate(-1321.6 19.86)"/><path class="cls-1" d="M1402.86,9.17h1.85l3.09,7.65-.18.24V9.17h1.71V19.85h-1.87l-3.07-7.39.17-.24v7.63h-1.7Z" transform="translate(-1321.6 19.86)"/><path class="cls-1" d="M1412.79,19.85h-1.85V9.17h1.85Z" transform="translate(-1321.6 19.86)"/><path class="cls-1" d="M1415.7,19.57a2.58,2.58,0,0,1-1-1.14,4.19,4.19,0,0,1-.36-1.82V12.42a4.16,4.16,0,0,1,.36-1.82,2.56,2.56,0,0,1,1-1.15,3.3,3.3,0,0,1,1.65-.39,3.1,3.1,0,0,1,1.61.39,2.68,2.68,0,0,1,1,1.2,6,6,0,0,1,.43,2h-1.88a3.49,3.49,0,0,0-.18-1,1.27,1.27,0,0,0-.39-.56,1,1,0,0,0-.6-.18,1.18,1.18,0,0,0-.63.16,1,1,0,0,0-.41.49,1.87,1.87,0,0,0-.14.78v4.19a1.77,1.77,0,0,0,.14.77,1,1,0,0,0,.41.49,1.18,1.18,0,0,0,.63.16,1,1,0,0,0,.6-.18,1.31,1.31,0,0,0,.39-.57,3,3,0,0,0,.18-1h1.88a5.94,5.94,0,0,1-.44,2.05,2.62,2.62,0,0,1-1,1.2,3,3,0,0,1-1.6.39A3.3,3.3,0,0,1,1415.7,19.57Z" transform="translate(-1321.6 19.86)"/><path class="cls-1" d="M1423.83,9.17h1.22l3.15,10.68h-1.89l-1.87-7.14-1.88,7.14h-1.89Zm-1.4,7.18h4.06v1.82h-4.06Z" transform="translate(-1321.6 19.86)"/></svg>