<svg id="Capa_5" data-name="Capa 5" xmlns="http://www.w3.org/2000/svg" viewBox="0 0 181 75.65"><defs><style>.cls-1{fill:#fff;}.cls-2{fill:#f1842d;}.cls-3{fill:#413374;}</style></defs><path class="cls-1" d="M1072.36,84.81v19H1065V77.5c.29,0,.58-.06.87-.06,3,0,5.94,0,8.91,0a1.1,1.1,0,0,1,1.24.89c2.27,6.19,4.58,12.37,6.86,18.56.22.61.44,1,1.19,1a1.25,1.25,0,0,0,1.35-.91c2.34-6.2,4.74-12.37,7.1-18.57a1.17,1.17,0,0,1,1.32-.93c2.54,0,5.07,0,7.6,0,.29,0,.59,0,.93,0V103.8h-6.42V84.91l-.17,0c-.14.3-.28.61-.41.92-2.31,5.65-4.63,11.29-6.91,16.94a1.27,1.27,0,0,1-1.4,1c-1.79-.07-3.58-.07-5.36,0a1.16,1.16,0,0,1-1.27-.88q-3.66-8.55-7.37-17.07c-.15-.34-.32-.67-.47-1Z" transform="translate(-1062.64 -45.34)"/><path class="cls-1" d="M1171.69,88.59v15.12h-1.14c-6.38,0-12.76,0-19.13,0a9,9,0,0,1-8.67-5.67,16.61,16.61,0,0,1-.48-13.17,10.54,10.54,0,0,1,10-7.22c6.3-.26,12.62-.07,18.93-.07a3.9,3.9,0,0,1,.52.08v4.16h-1.12c-5.54,0-11.07.06-16.6,0a4.41,4.41,0,0,0-4.19,2.57,11.8,11.8,0,0,0-1.3,5.6,15,15,0,0,0,1.13,6.93c.92,1.93,2.24,3.11,4.54,3,3.13-.15,6.27,0,9.41,0h1.16V93.36h-9.45V88.59Z" transform="translate(-1062.64 -45.34)"/><path class="cls-1" d="M1116.52,94.58v9H1109v-26a3.75,3.75,0,0,1,.57-.09c7.32,0,14.64,0,22,0,4,0,6.46,2.69,6.47,6.89,0,.88,0,1.77,0,2.65,0,4.59-2.68,7.38-7.08,7.41s-8.77,0-13.15,0Zm.08-12.74v8.8c3.52,0,7,.09,10.39,0a6.66,6.66,0,0,0,3.09-1.14,3.81,3.81,0,0,0,.53-5.77,5.26,5.26,0,0,0-3.67-1.8C1123.51,81.77,1120.08,81.84,1116.6,81.84Z" transform="translate(-1062.64 -45.34)"/><path class="cls-2" d="M1070.87,75.27c-.33.06-3,.55-3.15.5s.26-.81.5-.91A198.07,198.07,0,0,1,1112.69,62c22.94-3.85,80.88-12.65,98.68,5.22a15.79,15.79,0,0,1,4.52,12.36c-1.66,26.41-65.85,36.77-86,41.39,1.46-1,14.12-4.52,16.64-5.29,14-4.25,35.75-11.8,46.17-22.34,3.5-3.54,6.33-8.32,4.32-13.43-9.81-24.87-78.87-13.93-99.2-10.42" transform="translate(-1062.64 -45.34)"/><path class="cls-3" d="M1062.64,72c.8-1.31,10.62-5.41,12.6-6.26,36.84-15.84,122-31.76,157.16-9.26,8.6,5.5,13.28,14.16,10.38,24.48-5.75,20.48-41.67,30.63-59.82,34.91-7.06,1.67-14.17,3.21-21.29,4.68,27.76-7.53,60.92-20.06,62.15-41.57a19.8,19.8,0,0,0-4.89-14.68c-19.33-21.23-82.22-10.77-107.12-6.2C1098.54,60.56,1066.22,71,1062.64,72Z" transform="translate(-1062.64 -45.34)"/><path class="cls-1" d="M1065,106.45h1.82v10.69H1065Zm.73,0h4.93v1.86h-4.93Zm0,4.45h4.37v1.85h-4.37Zm0,4.38h4.93v1.86h-4.93Z" transform="translate(-1062.64 -45.34)"/><path class="cls-1" d="M1072,106.45h1.82v10.69H1072Zm.78,8.84h4.81v1.85h-4.81Z" transform="translate(-1062.64 -45.34)"/><path class="cls-1" d="M1078.75,106.45h1.82v10.69h-1.82Zm.73,0h4.93v1.86h-4.93Zm0,4.45h4.37v1.85h-4.37Zm0,4.38h4.93v1.86h-4.93Z" transform="translate(-1062.64 -45.34)"/><path class="cls-1" d="M1087,116.85a2.58,2.58,0,0,1-1-1.14,4.19,4.19,0,0,1-.36-1.82V109.7a4.19,4.19,0,0,1,.36-1.82,2.56,2.56,0,0,1,1-1.15,3.3,3.3,0,0,1,1.65-.39,3.1,3.1,0,0,1,1.61.39,2.65,2.65,0,0,1,1,1.21,5.85,5.85,0,0,1,.43,2h-1.88a3.35,3.35,0,0,0-.18-1,1.3,1.3,0,0,0-.4-.57,1,1,0,0,0-.59-.18,1.19,1.19,0,0,0-.63.17,1,1,0,0,0-.41.48,1.87,1.87,0,0,0-.14.78v4.19a1.84,1.84,0,0,0,.14.78,1,1,0,0,0,.41.48,1.18,1.18,0,0,0,.63.16,1,1,0,0,0,.6-.18,1.27,1.27,0,0,0,.39-.56,3.16,3.16,0,0,0,.18-1h1.88a5.94,5.94,0,0,1-.44,2,2.62,2.62,0,0,1-1,1.2,3,3,0,0,1-1.6.4A3.3,3.3,0,0,1,1087,116.85Z" transform="translate(-1062.64 -45.34)"/><path class="cls-1" d="M1092.12,106.45h6.27v1.84h-6.27Zm2.21.89h1.83v9.8h-1.83Z" transform="translate(-1062.64 -45.34)"/><path class="cls-1" d="M1099.37,106.44h1.8v10.7h-1.8Zm.77,4.44h2.68a.84.84,0,0,0,.45-.12.83.83,0,0,0,.3-.34,1.21,1.21,0,0,0,.1-.52v-.6a1.27,1.27,0,0,0-.1-.54.79.79,0,0,0-.3-.35.82.82,0,0,0-.45-.12h-2.68v-1.85h2.7a2.87,2.87,0,0,1,1.44.34,2.26,2.26,0,0,1,.94,1,3.22,3.22,0,0,1,.33,1.5v.62a3.28,3.28,0,0,1-.33,1.52,2.31,2.31,0,0,1-.94,1,2.87,2.87,0,0,1-1.44.35h-2.7Zm1.77,1.51,1.82-.33,2.18,5.08h-2.08Z" transform="translate(-1062.64 -45.34)"/><path class="cls-1" d="M1108.37,116.86a2.76,2.76,0,0,1-1.1-1.12,3.71,3.71,0,0,1-.38-1.71v-4.47a3.73,3.73,0,0,1,.38-1.72,2.73,2.73,0,0,1,1.1-1.11,3.79,3.79,0,0,1,3.35,0,2.73,2.73,0,0,1,1.1,1.11,3.73,3.73,0,0,1,.38,1.72V114a3.71,3.71,0,0,1-.38,1.71,2.76,2.76,0,0,1-1.1,1.12,3.79,3.79,0,0,1-3.35,0Zm2.36-1.7a1.07,1.07,0,0,0,.45-.49,1.73,1.73,0,0,0,.15-.75v-4.27a1.72,1.72,0,0,0-.15-.74,1.12,1.12,0,0,0-.45-.49,1.36,1.36,0,0,0-.69-.17,1.37,1.37,0,0,0-.68.17,1.16,1.16,0,0,0-.44.49,1.58,1.58,0,0,0-.16.74v4.27a1.6,1.6,0,0,0,.16.75,1.11,1.11,0,0,0,.44.49,1.37,1.37,0,0,0,.68.17A1.36,1.36,0,0,0,1110.73,115.16Z" transform="translate(-1062.64 -45.34)"/><path class="cls-1" d="M1120.45,106.45h2.07v10.69h-1.65v-7.88l.09.47-1.71,5.86H1118l-1.72-5.72.11-.61v7.88h-1.66V106.45h2.08l1.82,6.5Z" transform="translate(-1062.64 -45.34)"/><path class="cls-1" d="M1124.27,106.45h1.82v10.69h-1.82Zm.72,0h4.94v1.86H1125Zm0,4.45h4.38v1.85H1125Zm0,4.38h4.94v1.86H1125Z" transform="translate(-1062.64 -45.34)"/><path class="cls-1" d="M1132.56,116.85a2.53,2.53,0,0,1-1-1.14,4.19,4.19,0,0,1-.36-1.82V109.7a4.19,4.19,0,0,1,.36-1.82,2.5,2.5,0,0,1,1-1.15,3.3,3.3,0,0,1,1.65-.39,3.06,3.06,0,0,1,1.6.39,2.67,2.67,0,0,1,1,1.21,5.86,5.86,0,0,1,.42,2h-1.87a3.32,3.32,0,0,0-.19-1,1.21,1.21,0,0,0-.39-.57,1,1,0,0,0-.59-.18,1.2,1.2,0,0,0-.64.17,1.14,1.14,0,0,0-.41.48,2.05,2.05,0,0,0-.14.78v4.19a2,2,0,0,0,.14.78,1.14,1.14,0,0,0,.41.48,1.19,1.19,0,0,0,.64.16,1,1,0,0,0,.6-.18,1.27,1.27,0,0,0,.39-.56,3.16,3.16,0,0,0,.18-1h1.87a6,6,0,0,1-.43,2,2.68,2.68,0,0,1-1,1.2,3.06,3.06,0,0,1-1.6.4A3.3,3.3,0,0,1,1132.56,116.85Z" transform="translate(-1062.64 -45.34)"/><path class="cls-1" d="M1140.83,106.45H1142l3.16,10.69h-1.89l-1.88-7.15-1.87,7.15h-1.89Zm-1.4,7.18h4.06v1.82h-4.06Zm1.09-9,1.85-1.86,1.27,1.33-2,1.71Z" transform="translate(-1062.64 -45.34)"/><path class="cls-1" d="M1146.21,106.45h1.85l3.09,7.65-.18.24v-7.89h1.71v10.68h-1.87l-3.06-7.39.16-.24v7.63h-1.7Z" transform="translate(-1062.64 -45.34)"/><path class="cls-1" d="M1156.14,117.14h-1.85V106.45h1.85Z" transform="translate(-1062.64 -45.34)"/><path class="cls-1" d="M1159.06,116.85a2.53,2.53,0,0,1-1-1.14,4,4,0,0,1-.37-1.82V109.7a4,4,0,0,1,.37-1.82,2.5,2.5,0,0,1,1-1.15,3.28,3.28,0,0,1,1.65-.39,3.06,3.06,0,0,1,1.6.39,2.65,2.65,0,0,1,1,1.21,5.63,5.63,0,0,1,.43,2h-1.87a3.32,3.32,0,0,0-.19-1,1.21,1.21,0,0,0-.39-.57,1,1,0,0,0-.59-.18,1.2,1.2,0,0,0-.64.17,1.08,1.08,0,0,0-.41.48,2.05,2.05,0,0,0-.14.78v4.19a2,2,0,0,0,.14.78,1.08,1.08,0,0,0,.41.48,1.19,1.19,0,0,0,.64.16,1,1,0,0,0,.59-.18,1.21,1.21,0,0,0,.4-.56,3.91,3.91,0,0,0,.18-1h1.87a6.19,6.19,0,0,1-.43,2,2.74,2.74,0,0,1-1,1.2,3.09,3.09,0,0,1-1.6.4A3.28,3.28,0,0,1,1159.06,116.85Z" transform="translate(-1062.64 -45.34)"/><path class="cls-1" d="M1167.18,106.45h1.22l3.16,10.69h-1.89l-1.88-7.15-1.88,7.15H1164Zm-1.4,7.18h4.06v1.82h-4.06Z" transform="translate(-1062.64 -45.34)"/></svg>